<svg width="24" height="24" viewBox="0 0 24 24" fill="none" xmlns="http://www.w3.org/2000/svg">
<mask id="mask0_2038_3229" style="mask-type:alpha" maskUnits="userSpaceOnUse" x="0" y="0" width="24" height="24">
<rect width="24" height="24" fill="#D9D9D9"/>
</mask>
<g mask="url(#mask0_2038_3229)">
<path d="M10.5859 14.4495C10.8595 14.3762 11.0642 14.2221 11.1997 13.9874C11.3352 13.7526 11.3663 13.4984 11.293 13.2247L10.5165 10.327C10.4432 10.0533 10.2891 9.84868 10.0544 9.71316C9.81966 9.57763 9.56545 9.54653 9.29177 9.61986C9.01809 9.69319 8.81349 9.84723 8.67796 10.082C8.54243 10.3167 8.51133 10.5709 8.58467 10.8446L9.36112 13.7424C9.43446 14.0161 9.58849 14.2207 9.82324 14.3562C10.058 14.4917 10.3122 14.5228 10.5859 14.4495ZM6.27388 17.6754L5.36801 14.2947C4.52825 14.1229 3.79722 13.745 3.17491 13.1612C2.5526 12.5774 2.13145 11.8749 1.91145 11.0539C1.58793 9.84648 1.72855 8.71314 2.33333 7.65385C2.9381 6.59456 3.8442 5.90315 5.0516 5.57963C5.24479 5.52787 5.44631 5.49112 5.65617 5.4694C5.86604 5.44768 6.07403 5.43508 6.28016 5.43161C6.50577 4.66372 6.89094 4.00837 7.43568 3.46555C7.98041 2.92273 8.63915 2.5478 9.41189 2.34074C10.1846 2.13369 10.9426 2.12902 11.6857 2.32675C12.4289 2.52447 13.0902 2.89944 13.6695 3.45165C13.8497 3.35159 14.0321 3.25958 14.2167 3.17562C14.4012 3.09165 14.5982 3.02163 14.8075 2.96556C16.0149 2.64203 17.1453 2.78776 18.1987 3.40275C19.2521 4.01773 19.9405 4.92892 20.264 6.13633C20.484 6.95737 20.4705 7.77627 20.2235 8.59303C19.9765 9.4098 19.5323 10.1025 18.891 10.6712L19.7968 14.052L6.27388 17.6754ZM14.4496 13.4142C14.7233 13.3409 14.9279 13.1868 15.0634 12.9521C15.1989 12.7174 15.23 12.4631 15.1567 12.1895L14.3802 9.29169C14.3069 9.01801 14.1529 8.81341 13.9181 8.67788C13.6834 8.54235 13.4292 8.51125 13.1555 8.58458C12.8818 8.65792 12.6772 8.81195 12.5417 9.0467C12.4061 9.28144 12.375 9.53565 12.4484 9.80933L13.2248 12.7071C13.2982 12.9808 13.4522 13.1854 13.6869 13.3209C13.9217 13.4564 14.1759 13.4875 14.4496 13.4142ZM9.75864 22.9534C9.22738 23.0957 8.72191 23.0284 8.24222 22.7515C7.76252 22.4745 7.4515 22.0704 7.30915 21.5391L6.79151 19.6073L20.3145 15.9838L20.8321 17.9157C20.9745 18.4469 20.9072 18.9524 20.6302 19.4321C20.3533 19.9118 19.9492 20.2228 19.4179 20.3652L9.75864 22.9534Z" fill="#5B4A0B"/>
</g>
</svg>
