<svg width="900" height="341" viewBox="0 0 900 341" fill="none" xmlns="http://www.w3.org/2000/svg">
<path d="M874.558 62.9611C882.797 62.9611 889.096 65.3019 893.458 69.9836C897.819 74.5039 900 80.5578 900 88.1454C900 95.0873 897.819 100.818 893.458 105.339C889.258 109.697 883.604 111.877 876.497 111.877C871.489 111.877 867.128 110.424 863.412 107.518C859.859 104.612 857.436 100.738 856.143 95.8945C851.459 97.6703 847.582 101.141 844.513 106.307C841.605 111.312 840.151 116.801 840.151 122.774V154.254H848.147C851.54 154.254 854.286 155.142 856.386 156.918C858.486 158.694 859.536 161.438 859.536 165.152V175.806C859.536 179.52 858.486 182.264 856.386 184.04C854.286 185.654 851.54 186.461 848.147 186.461H798.233C794.841 186.461 792.095 185.654 789.995 184.04C787.895 182.264 786.845 179.52 786.845 175.806V165.152C786.845 161.438 787.895 158.694 789.995 156.918C792.095 155.142 794.841 154.254 798.233 154.254H801.868V97.5896H798.233C794.841 97.5896 792.095 96.7017 789.995 94.9259C787.895 93.15 786.845 90.4056 786.845 86.6925V76.0376C786.845 72.3245 787.895 69.6608 789.995 68.0464C792.095 66.2706 794.841 65.3827 798.233 65.3827H828.279C831.671 65.3827 834.498 66.5127 836.759 68.7729C839.021 71.033 840.151 73.9389 840.151 77.4905V92.2621C842.898 83.383 847.421 76.2797 853.72 70.9523C860.182 65.6248 867.128 62.9611 874.558 62.9611Z" fill="#FFF4CC"/>
<path d="M754.678 119.868C754.678 125.196 754.355 129.958 753.709 134.155H679.565C680.857 141.42 683.684 147.151 688.045 151.349C692.407 155.385 698.06 157.402 705.006 157.402C709.368 157.402 712.841 156.837 715.425 155.707C718.01 154.416 720.837 152.398 723.906 149.653C727.621 146.263 731.336 144.568 735.052 144.568C739.09 144.568 742.482 145.698 745.228 147.958C748.136 150.057 749.59 153.205 749.59 157.402C749.59 162.084 748.136 166.282 745.228 169.995C741.19 175.484 735.617 180.004 728.51 183.555C721.402 187.107 712.922 188.883 703.068 188.883C689.984 188.883 678.676 186.3 669.146 181.134C659.615 175.806 652.346 168.38 647.339 158.855C642.331 149.169 639.827 138.03 639.827 125.438C639.827 112.523 642.331 101.383 647.339 92.02C652.508 82.6566 659.615 75.4725 668.661 70.468C677.869 65.4634 688.449 62.9611 700.403 62.9611C710.256 62.9611 719.302 65.0598 727.54 69.2572C735.779 73.4546 742.321 79.8314 747.167 88.3876C752.174 96.9438 754.678 107.437 754.678 119.868ZM699.191 91.5357C688.691 91.5357 682.23 98.0739 679.807 111.15H715.425C715.587 110.182 715.668 108.81 715.668 107.034C715.668 102.029 714.133 98.2353 711.064 95.6523C708.156 92.9079 704.199 91.5357 699.191 91.5357Z" fill="#FFF4CC"/>
<path d="M598.067 143.357C602.267 143.357 605.901 144.73 608.97 147.474C612.04 150.057 613.574 153.286 613.574 157.16C613.574 161.681 612.201 165.797 609.455 169.51C600.086 182.425 587.971 188.883 573.11 188.883C541.287 188.883 525.376 171.286 525.376 136.093V96.863H516.896C513.504 96.863 510.677 95.733 508.415 93.4728C506.154 91.2127 505.023 88.3068 505.023 84.7552V77.2483C505.023 73.8581 506.154 71.0329 508.415 68.7728C510.677 66.5126 513.504 65.3826 516.896 65.3826H525.376V44.0727C525.376 40.5211 526.507 37.6152 528.769 35.355C531.03 33.0949 533.938 31.9648 537.491 31.9648H551.787C555.179 31.9648 558.006 33.0949 560.268 35.355C562.529 37.6152 563.66 40.5211 563.66 44.0727V65.3826H588.132C591.686 65.3826 594.594 66.5126 596.855 68.7728C599.117 71.0329 600.247 73.8581 600.247 77.2483V84.7552C600.247 88.3068 599.117 91.2127 596.855 93.4728C594.594 95.733 591.686 96.863 588.132 96.863H563.66V142.146C563.66 146.828 564.629 150.541 566.568 153.286C568.668 156.03 571.494 157.402 575.048 157.402C577.794 157.402 580.056 156.837 581.833 155.707C583.609 154.416 585.467 152.317 587.406 149.411C589.021 147.313 590.555 145.779 592.009 144.81C593.625 143.842 595.644 143.357 598.067 143.357Z" fill="#FFF4CC"/>
<path d="M468.35 143.357C472.55 143.357 476.184 144.73 479.254 147.474C482.323 150.057 483.857 153.286 483.857 157.16C483.857 161.681 482.484 165.797 479.738 169.51C470.369 182.425 458.254 188.883 443.393 188.883C411.571 188.883 395.66 171.286 395.66 136.093V96.863H387.179C383.787 96.863 380.96 95.733 378.698 93.4728C376.437 91.2127 375.306 88.3068 375.306 84.7552V77.2483C375.306 73.8581 376.437 71.0329 378.698 68.7728C380.96 66.5126 383.787 65.3826 387.179 65.3826H395.66V44.0727C395.66 40.5211 396.79 37.6152 399.052 35.355C401.313 33.0949 404.221 31.9648 407.775 31.9648H422.07C425.463 31.9648 428.29 33.0949 430.551 35.355C432.813 37.6152 433.943 40.5211 433.943 44.0727V65.3826H458.416C461.969 65.3826 464.877 66.5126 467.139 68.7728C469.4 71.0329 470.531 73.8581 470.531 77.2483V84.7552C470.531 88.3068 469.4 91.2127 467.139 93.4728C464.877 95.733 461.969 96.863 458.416 96.863H433.943V142.146C433.943 146.828 434.912 150.541 436.851 153.286C438.951 156.03 441.778 157.402 445.331 157.402C448.078 157.402 450.339 156.837 452.116 155.707C453.893 154.416 455.75 152.317 457.689 149.411C459.304 147.313 460.839 145.779 462.293 144.81C463.908 143.842 465.927 143.357 468.35 143.357Z" fill="#FFF4CC"/>
<path d="M314.347 47.9472C307.562 47.9472 301.828 45.687 297.143 41.1668C292.62 36.4851 290.359 30.754 290.359 23.9736C290.359 17.1932 292.62 11.5428 297.143 7.02256C301.828 2.34085 307.562 0 314.347 0C321.131 0 326.785 2.34085 331.308 7.02256C335.992 11.5428 338.335 17.1932 338.335 23.9736C338.335 30.754 335.992 36.4851 331.308 41.1668C326.785 45.687 321.131 47.9472 314.347 47.9472ZM295.932 186.461C292.54 186.461 289.793 185.654 287.694 184.04C285.594 182.264 284.544 179.519 284.544 175.806V165.151C284.544 161.438 285.594 158.694 287.694 156.918C289.793 155.142 292.54 154.254 295.932 154.254H299.566V97.5895H295.932C292.54 97.5895 289.793 96.7015 287.694 94.9257C285.594 93.1499 284.544 90.4054 284.544 86.6924V76.0374C284.544 72.3244 285.594 69.6606 287.694 68.0462C289.793 66.2704 292.54 65.3825 295.932 65.3825H325.977C329.369 65.3825 332.196 66.5126 334.458 68.7727C336.719 71.0329 337.85 73.9387 337.85 77.4904V154.254H341.484C345.038 154.254 347.865 155.142 349.965 156.918C352.065 158.694 353.115 161.438 353.115 165.151V175.806C353.115 179.519 352.065 182.264 349.965 184.04C347.865 185.654 345.038 186.461 341.484 186.461H295.932Z" fill="#FFF4CC"/>
<path d="M231.656 62.9611C239.894 62.9611 246.194 65.3019 250.555 69.9836C254.917 74.5039 257.098 80.5578 257.098 88.1454C257.098 95.0873 254.917 100.818 250.555 105.339C246.356 109.697 240.702 111.877 233.594 111.877C228.587 111.877 224.225 110.424 220.51 107.518C216.956 104.612 214.533 100.738 213.241 95.8945C208.557 97.6703 204.68 101.141 201.611 106.307C198.703 111.312 197.249 116.801 197.249 122.774V154.254H205.245C208.637 154.254 211.383 155.142 213.483 156.918C215.583 158.694 216.633 161.438 216.633 165.152V175.806C216.633 179.52 215.583 182.264 213.483 184.04C211.383 185.654 208.637 186.461 205.245 186.461H155.331C151.939 186.461 149.193 185.654 147.093 184.04C144.993 182.264 143.943 179.52 143.943 175.806V165.152C143.943 161.438 144.993 158.694 147.093 156.918C149.193 155.142 151.939 154.254 155.331 154.254H158.965V97.5896H155.331C151.939 97.5896 149.193 96.7017 147.093 94.9259C144.993 93.15 143.943 90.4056 143.943 86.6925V76.0376C143.943 72.3245 144.993 69.6608 147.093 68.0464C149.193 66.2706 151.939 65.3827 155.331 65.3827H185.376C188.769 65.3827 191.595 66.5127 193.857 68.7729C196.118 71.033 197.249 73.9389 197.249 77.4905V92.2621C199.995 83.383 204.518 76.2797 210.818 70.9523C217.279 65.6248 224.225 62.9611 231.656 62.9611Z" fill="#FFF4CC"/>
<path d="M95.2245 144.568C99.2629 144.568 102.655 145.698 105.401 147.958C108.309 150.057 109.763 153.205 109.763 157.402C109.763 162.084 108.309 166.282 105.401 169.995C101.363 175.484 95.7899 180.004 88.6824 183.555C81.5748 187.107 73.0943 188.883 63.2407 188.883C50.1564 188.883 38.849 186.3 29.3185 181.134C19.788 175.806 12.5189 168.38 7.51135 158.855C2.50378 149.169 0 138.03 0 125.438C0 112.684 2.58455 101.626 7.75365 92.2621C13.0843 82.7373 20.3533 75.4725 29.5608 70.468C38.9298 65.4634 49.591 62.9611 61.5446 62.9611C71.0751 62.9611 79.7172 64.6562 87.4709 68.0464C95.2245 71.4366 101.282 76.1183 105.643 82.0915C110.166 88.0647 112.428 94.6837 112.428 101.948C112.428 108.406 110.328 113.653 106.128 117.689C101.928 121.563 96.436 123.5 89.6516 123.5C82.7056 123.5 77.1327 121.644 72.9328 117.931C68.7329 114.056 66.6329 109.052 66.6329 102.917C66.6329 100.657 66.8752 98.4775 67.3598 96.3788C65.0983 95.0873 62.433 94.4415 59.3639 94.4415C52.5794 94.4415 47.4911 97.0246 44.0989 102.191C40.7067 107.357 39.0105 114.944 39.0105 124.953C39.0105 134.801 41.272 142.712 45.795 148.685C50.4795 154.497 56.9409 157.402 65.1791 157.402C69.5405 157.402 73.0135 156.837 75.5981 155.707C78.1826 154.416 81.0095 152.398 84.0786 149.653C87.7939 146.263 91.5092 144.568 95.2245 144.568Z" fill="#FFF4CC"/>
<path d="M154.393 327.943C157.342 327.943 158.817 329.28 158.817 331.953V335.962C158.817 338.635 157.342 339.972 154.393 339.972H137.112C135.74 339.972 134.643 339.663 133.82 339.047C132.997 338.361 132.585 337.333 132.585 335.962V331.953C132.585 330.582 132.997 329.588 133.82 328.972C134.643 328.286 135.74 327.943 137.112 327.943H138.243V312.625C138.243 307.691 137.695 304.264 136.597 302.345C135.569 300.357 133.683 299.363 130.94 299.363C128.951 299.363 127.065 299.98 125.282 301.214C123.567 302.447 122.161 304.127 121.064 306.251C120.036 308.307 119.521 310.501 119.521 312.831V327.943H120.756C122.059 327.943 123.122 328.286 123.945 328.972C124.767 329.588 125.179 330.582 125.179 331.953V335.962C125.179 337.333 124.767 338.361 123.945 339.047C123.122 339.663 122.059 339.972 120.756 339.972H103.371C102.068 339.972 101.005 339.663 100.182 339.047C99.3591 338.361 98.9476 337.333 98.9476 335.962V331.953C98.9476 330.582 99.3591 329.588 100.182 328.972C101.005 328.286 102.068 327.943 103.371 327.943H105.325V300.597H103.371C102.068 300.597 101.005 300.288 100.182 299.672C99.3591 298.986 98.9476 297.958 98.9476 296.587V292.578C98.9476 289.905 100.422 288.569 103.371 288.569H114.789C116.161 288.569 117.292 289.014 118.184 289.905C119.075 290.796 119.521 291.927 119.521 293.298V298.849C120.824 295.559 122.916 292.852 125.796 290.727C128.745 288.603 131.797 287.54 134.951 287.54C140.575 287.54 144.895 289.357 147.913 292.989C150.999 296.622 152.542 301.831 152.542 308.616V327.943H154.393Z" fill="#FFF4CC"/>
<path d="M71.0721 280.344C68.4661 280.344 66.2716 279.487 64.4886 277.774C62.7741 275.992 61.9169 273.799 61.9169 271.194C61.9169 268.59 62.7741 266.431 64.4886 264.717C66.2716 262.935 68.4661 262.044 71.0721 262.044C73.6781 262.044 75.8383 262.935 77.5528 264.717C79.3358 266.431 80.2274 268.59 80.2274 271.194C80.2274 273.799 79.3358 275.992 77.5528 277.774C75.8383 279.487 73.6781 280.344 71.0721 280.344ZM63.8714 339.972C62.5684 339.972 61.5054 339.663 60.6825 339.047C59.8595 338.361 59.448 337.333 59.448 335.962V331.953C59.448 330.582 59.8595 329.588 60.6825 328.972C61.5054 328.286 62.5684 327.943 63.8714 327.943H65.8258V300.597H63.8714C62.5684 300.597 61.5054 300.288 60.6825 299.672C59.8595 298.986 59.448 297.958 59.448 296.587V292.578C59.448 289.905 60.9225 288.569 63.8714 288.569H75.2897C76.6613 288.569 77.7928 289.014 78.6843 289.905C79.5759 290.796 80.0216 291.927 80.0216 293.298V327.943H81.8732C83.2448 327.943 84.3421 328.286 85.165 328.972C85.988 329.588 86.3994 330.582 86.3994 331.953V335.962C86.3994 337.333 85.988 338.361 85.165 339.047C84.3421 339.663 83.2448 339.972 81.8732 339.972H63.8714Z" fill="#FFF4CC"/>
<path d="M366.404 310.745C366.404 317.289 363.04 320.919 356.313 321.633L331.802 324.176C331.921 331.048 335.642 334.483 342.964 334.483C345.821 334.483 348.723 334.112 351.67 333.368C354.617 332.594 357.296 331.598 359.707 330.378C360.183 330.17 360.555 330.066 360.823 330.066C361.954 330.066 362.787 330.899 363.323 332.565C363.502 333.189 363.591 333.725 363.591 334.171C363.591 334.855 363.412 335.42 363.055 335.867C362.728 336.313 362.207 336.7 361.493 337.027C358.843 338.187 355.807 339.139 352.384 339.883C348.991 340.597 345.628 340.953 342.294 340.953C338.603 340.953 335.448 340.284 332.829 338.946C330.21 337.577 328.215 335.644 326.846 333.145C325.507 330.616 324.837 327.627 324.837 324.176C324.837 319.297 325.908 314.85 328.052 310.834C330.195 306.789 333.201 303.606 337.07 301.285C340.97 298.935 345.39 297.76 350.331 297.76C353.575 297.76 356.403 298.326 358.814 299.456C361.254 300.586 363.13 302.133 364.439 304.097C365.749 306.06 366.404 308.276 366.404 310.745ZM354.929 315.43C356.566 315.252 357.712 314.806 358.367 314.092C359.022 313.378 359.35 312.337 359.35 310.968C359.35 309.005 358.516 307.399 356.849 306.149C355.182 304.87 352.786 304.23 349.661 304.23C346.655 304.23 343.976 304.825 341.624 306.015C339.273 307.175 337.323 308.797 335.776 310.879C334.228 312.932 333.127 315.311 332.472 318.018L354.929 315.43Z" fill="#FFF4CC"/>
<path d="M280.082 281.429C280.916 281.429 281.511 281.578 281.868 281.875C282.255 282.173 282.449 282.679 282.449 283.393C282.449 283.839 282.419 284.196 282.359 284.463L278.475 306.506C280.916 303.651 283.49 301.479 286.199 299.992C288.937 298.504 291.706 297.761 294.503 297.761C296.855 297.761 298.879 298.236 300.576 299.188C302.302 300.14 303.612 301.494 304.505 303.249C305.427 304.974 305.889 306.997 305.889 309.317C305.889 310.478 305.784 311.623 305.576 312.753L301.826 333.904H305.487C306.32 333.904 306.916 334.052 307.273 334.35C307.66 334.647 307.853 335.153 307.853 335.867C307.853 336.313 307.823 336.67 307.764 336.938C307.585 338.038 307.243 338.827 306.737 339.303C306.231 339.749 305.472 339.972 304.46 339.972H296.914C296.081 339.972 295.471 339.823 295.084 339.526C294.697 339.228 294.503 338.723 294.503 338.009C294.503 337.562 294.533 337.206 294.593 336.938L298.834 312.976C298.983 312.024 299.058 311.236 299.058 310.611C299.058 308.648 298.552 307.116 297.54 306.015C296.557 304.915 295.084 304.364 293.119 304.364C290.619 304.364 288.119 305.168 285.619 306.774C283.148 308.351 281.02 310.492 279.234 313.199C277.448 315.906 276.272 318.851 275.707 322.034L272.983 337.518C272.805 338.559 272.418 339.303 271.823 339.749C271.257 340.195 270.379 340.418 269.188 340.418H269.099C268.057 340.418 267.313 340.27 266.867 339.972C266.42 339.645 266.197 339.124 266.197 338.41C266.197 338.291 266.227 337.994 266.286 337.518L275.126 287.498H271.019C270.185 287.498 269.575 287.349 269.188 287.052C268.831 286.754 268.653 286.248 268.653 285.534C268.653 285.088 268.682 284.731 268.742 284.463C268.95 283.363 269.307 282.589 269.813 282.143C270.319 281.667 271.078 281.429 272.09 281.429H280.082Z" fill="#FFF4CC"/>
<path d="M226.086 286.025C227.127 286.025 227.872 286.189 228.318 286.516C228.765 286.813 228.988 287.319 228.988 288.033C228.988 288.152 228.958 288.449 228.899 288.925L226.532 302.312H244.882C245.716 302.312 246.311 302.46 246.668 302.758C247.055 303.055 247.249 303.561 247.249 304.275C247.249 304.721 247.219 305.078 247.159 305.346C246.981 306.447 246.624 307.235 246.088 307.711C245.582 308.157 244.823 308.38 243.811 308.38H225.461L222.603 324.622C222.335 325.991 222.201 327.225 222.201 328.326C222.201 330.408 222.707 331.955 223.719 332.966C224.761 333.948 226.443 334.439 228.765 334.439C230.729 334.439 232.872 334.037 235.194 333.234C237.545 332.401 239.882 331.3 242.203 329.932C242.65 329.664 243.096 329.53 243.543 329.53C244.019 329.53 244.466 329.709 244.882 330.066C245.299 330.423 245.641 330.958 245.909 331.672C246.147 332.267 246.266 332.862 246.266 333.457C246.266 334.498 245.701 335.331 244.57 335.956C241.95 337.443 239.182 338.648 236.265 339.57C233.348 340.492 230.625 340.953 228.095 340.953C223.838 340.953 220.668 339.972 218.585 338.009C216.501 336.015 215.46 333.145 215.46 329.397C215.46 328.147 215.608 326.6 215.906 324.756L218.764 308.38H209.7C208.867 308.38 208.256 308.231 207.87 307.934C207.512 307.607 207.334 307.086 207.334 306.372C207.334 306.223 207.364 305.881 207.423 305.346C207.631 304.245 207.989 303.472 208.495 303.026C209.001 302.55 209.76 302.312 210.772 302.312H219.835L222.201 288.925C222.38 287.884 222.752 287.141 223.318 286.694C223.913 286.248 224.836 286.025 226.086 286.025Z" fill="#FFF4CC"/>
<path d="M827.032 327.943C829.981 327.943 831.455 329.28 831.455 331.953V335.962C831.455 338.635 829.981 339.972 827.032 339.972H809.75C808.378 339.972 807.281 339.663 806.458 339.047C805.635 338.361 805.224 337.333 805.224 335.962V331.953C805.224 330.582 805.635 329.588 806.458 328.972C807.281 328.286 808.378 327.943 809.75 327.943H810.882V312.625C810.882 307.691 810.333 304.264 809.236 302.345C808.207 300.357 806.321 299.363 803.578 299.363C801.589 299.363 799.703 299.98 797.92 301.214C796.206 302.447 794.8 304.127 793.703 306.251C792.674 308.307 792.16 310.501 792.16 312.831V327.943H793.394C794.697 327.943 795.76 328.286 796.583 328.972C797.406 329.588 797.817 330.582 797.817 331.953V335.962C797.817 337.333 797.406 338.361 796.583 339.047C795.76 339.663 794.697 339.972 793.394 339.972H776.009C774.706 339.972 773.643 339.663 772.82 339.047C771.997 338.361 771.586 337.333 771.586 335.962V331.953C771.586 330.582 771.997 329.588 772.82 328.972C773.643 328.286 774.706 327.943 776.009 327.943H777.964V300.597H776.009C774.706 300.597 773.643 300.288 772.82 299.672C771.997 298.986 771.586 297.958 771.586 296.587V292.578C771.586 289.905 773.06 288.569 776.009 288.569H787.428C788.799 288.569 789.931 289.014 790.822 289.905C791.714 290.796 792.16 291.927 792.16 293.298V298.849C793.463 295.559 795.554 292.852 798.435 290.727C801.383 288.603 804.435 287.54 807.59 287.54C813.213 287.54 817.534 289.357 820.551 292.989C823.637 296.622 825.18 301.831 825.18 308.616V327.943H827.032Z" fill="#FFF4CC"/>
<path d="M757.417 311.7C757.417 312.728 757.314 314.579 757.108 317.252H724.087C724.636 320.953 725.939 323.865 727.996 325.99C730.054 328.115 732.763 329.177 736.123 329.177C738.317 329.177 740.066 328.869 741.369 328.252C742.741 327.567 744.078 326.47 745.381 324.962C746.753 323.454 748.227 322.7 749.804 322.7C751.313 322.7 752.616 323.146 753.713 324.037C754.811 324.928 755.359 326.127 755.359 327.635C755.359 329.28 754.776 330.925 753.61 332.57C751.759 335.106 749.324 337.162 746.307 338.738C743.358 340.246 739.758 341 735.506 341C730.157 341 725.493 339.869 721.516 337.607C717.607 335.346 714.589 332.193 712.463 328.149C710.406 324.037 709.377 319.308 709.377 313.962C709.377 308.547 710.406 303.852 712.463 299.877C714.589 295.902 717.538 292.852 721.31 290.727C725.15 288.603 729.574 287.54 734.58 287.54C738.832 287.54 742.672 288.466 746.101 290.316C749.53 292.098 752.273 294.805 754.331 298.438C756.388 302.07 757.417 306.491 757.417 311.7ZM734.271 298.335C728.648 298.335 725.322 301.694 724.293 308.41H742.912V307.279C742.912 304.332 742.124 302.105 740.546 300.597C739.038 299.089 736.946 298.335 734.271 298.335Z" fill="#FFF4CC"/>
<path d="M692.849 327.943C695.798 327.943 697.273 329.28 697.273 331.953V335.962C697.273 338.635 695.798 339.972 692.849 339.972H674.847C671.899 339.972 670.424 338.635 670.424 335.962V331.953C670.424 329.28 671.899 327.943 674.847 327.943H676.699V312.625C676.699 307.691 676.151 304.264 675.053 302.345C673.956 300.357 672.036 299.363 669.293 299.363C667.304 299.363 665.418 300.014 663.635 301.316C661.852 302.55 660.412 304.195 659.314 306.251C658.286 308.307 657.771 310.501 657.771 312.831V327.943H659.726C661.029 327.943 662.092 328.286 662.915 328.972C663.738 329.588 664.149 330.582 664.149 331.953V335.962C664.149 337.333 663.738 338.361 662.915 339.047C662.092 339.663 661.029 339.972 659.726 339.972H641.724C640.352 339.972 639.255 339.663 638.432 339.047C637.609 338.361 637.198 337.333 637.198 335.962V331.953C637.198 330.582 637.609 329.588 638.432 328.972C639.255 328.286 640.352 327.943 641.724 327.943H643.576V275.923H641.724C640.352 275.923 639.255 275.615 638.432 274.998C637.609 274.313 637.198 273.285 637.198 271.914V267.904C637.198 266.534 637.609 265.54 638.432 264.923C639.255 264.238 640.318 263.895 641.621 263.895H653.039C654.411 263.895 655.543 264.34 656.434 265.231C657.326 266.122 657.771 267.253 657.771 268.624V298.849C659.143 295.559 661.269 292.852 664.149 290.727C667.098 288.603 670.15 287.54 673.304 287.54C678.928 287.54 683.283 289.391 686.369 293.092C689.455 296.724 690.998 301.899 690.998 308.616V327.943H692.849Z" fill="#FFF4CC"/>
<path d="M618.467 322.7C619.976 322.7 621.279 323.146 622.376 324.037C623.473 324.928 624.022 326.127 624.022 327.635C624.022 329.28 623.439 330.925 622.273 332.57C620.422 335.106 617.987 337.162 614.97 338.738C612.021 340.246 608.42 341 604.168 341C598.819 341 594.156 339.869 590.178 337.607C586.269 335.346 583.252 332.193 581.126 328.149C579.069 324.037 578.04 319.308 578.04 313.962C578.04 308.547 579.103 303.852 581.229 299.877C583.423 295.902 586.441 292.852 590.281 290.727C594.19 288.603 598.614 287.54 603.551 287.54C607.597 287.54 611.232 288.26 614.455 289.699C617.747 291.139 620.319 293.126 622.17 295.662C624.022 298.13 624.948 300.905 624.948 303.99C624.948 306.525 624.125 308.582 622.479 310.158C620.833 311.734 618.707 312.522 616.101 312.522C613.495 312.522 611.403 311.803 609.826 310.364C608.249 308.856 607.46 306.937 607.46 304.606C607.46 303.167 607.7 301.933 608.18 300.905C606.877 299.877 605.129 299.363 602.934 299.363C599.505 299.363 596.899 300.597 595.116 303.064C593.402 305.532 592.544 309.13 592.544 313.859C592.544 318.52 593.607 322.255 595.733 325.065C597.928 327.806 600.945 329.177 604.786 329.177C606.98 329.177 608.729 328.869 610.032 328.252C611.404 327.567 612.741 326.47 614.044 324.962C615.415 323.454 616.89 322.7 618.467 322.7Z" fill="#FFF4CC"/>
<path d="M560.303 322.084C561.88 322.084 563.252 322.598 564.418 323.626C565.583 324.585 566.166 325.785 566.166 327.224C566.166 328.869 565.652 330.479 564.623 332.056C560.577 338.019 555.502 341 549.399 341C536.506 341 530.06 333.769 530.06 319.308V300.391H525.636C524.265 300.391 523.133 299.98 522.242 299.158C521.35 298.267 520.904 297.136 520.904 295.765V293.195C520.904 291.824 521.35 290.727 522.242 289.905C523.133 289.014 524.265 288.569 525.636 288.569H530.06V279.316C530.06 277.945 530.471 276.814 531.294 275.923C532.186 275.032 533.317 274.587 534.689 274.587H539.626C540.998 274.587 542.095 275.032 542.918 275.923C543.81 276.814 544.255 277.945 544.255 279.316V288.569H555.571C556.943 288.569 558.074 289.014 558.966 289.905C559.857 290.727 560.303 291.824 560.303 293.195V295.765C560.303 297.136 559.857 298.267 558.966 299.158C558.074 299.98 556.943 300.391 555.571 300.391H544.255V321.158C544.255 323.694 544.77 325.682 545.799 327.121C546.827 328.492 548.233 329.177 550.016 329.177C551.456 329.177 552.588 328.835 553.411 328.149C554.302 327.464 555.228 326.299 556.188 324.654C556.805 323.763 557.388 323.112 557.937 322.7C558.554 322.289 559.343 322.084 560.303 322.084Z" fill="#FFF4CC"/>
<path d="M495.601 280.344C492.995 280.344 490.801 279.487 489.018 277.774C487.303 275.992 486.446 273.799 486.446 271.194C486.446 268.59 487.303 266.431 489.018 264.717C490.801 262.935 492.995 262.044 495.601 262.044C498.207 262.044 500.368 262.935 502.082 264.717C503.865 266.431 504.757 268.59 504.757 271.194C504.757 273.799 503.865 275.992 502.082 277.774C500.368 279.487 498.207 280.344 495.601 280.344ZM488.401 339.972C487.098 339.972 486.035 339.663 485.212 339.047C484.389 338.361 483.977 337.333 483.977 335.962V331.953C483.977 330.582 484.389 329.588 485.212 328.972C486.035 328.286 487.098 327.943 488.401 327.943H490.355V300.597H488.401C487.098 300.597 486.035 300.288 485.212 299.672C484.389 298.986 483.977 297.958 483.977 296.587V292.578C483.977 289.905 485.452 288.569 488.401 288.569H499.819C501.19 288.569 502.322 289.014 503.214 289.905C504.105 290.796 504.551 291.927 504.551 293.298V327.943H506.402C507.774 327.943 508.871 328.286 509.694 328.972C510.517 329.588 510.929 330.582 510.929 331.953V335.962C510.929 337.333 510.517 338.361 509.694 339.047C508.871 339.663 507.774 339.972 506.402 339.972H488.401Z" fill="#FFF4CC"/>
<path d="M465.989 327.943C468.938 327.943 470.413 329.28 470.413 331.953V335.962C470.413 338.635 468.938 339.972 465.989 339.972H455.497C454.194 339.972 453.097 339.389 452.205 338.224L432.969 314.373V327.943H434.82C437.769 327.943 439.244 329.28 439.244 331.953V335.962C439.244 338.635 437.769 339.972 434.82 339.972H416.921C415.55 339.972 414.452 339.663 413.63 339.047C412.807 338.361 412.395 337.333 412.395 335.962V331.953C412.395 330.582 412.807 329.588 413.63 328.972C414.452 328.286 415.55 327.943 416.921 327.943H418.773V275.923H416.921C415.55 275.923 414.452 275.615 413.63 274.998C412.807 274.313 412.395 273.285 412.395 271.914V267.904C412.395 266.534 412.807 265.54 413.63 264.923C414.452 264.238 415.515 263.895 416.818 263.895H428.237C429.608 263.895 430.74 264.34 431.631 265.231C432.523 266.122 432.969 267.253 432.969 268.624V312.008L442.947 304.092C445.896 301.762 448.639 300.597 451.176 300.597H445.724C442.775 300.597 441.301 299.26 441.301 296.587V292.578C441.301 289.905 442.775 288.568 445.724 288.568H465.269C466.641 288.568 467.738 288.911 468.561 289.597C469.384 290.213 469.795 291.207 469.795 292.578V296.587C469.795 297.958 469.384 298.986 468.561 299.672C467.738 300.288 466.641 300.597 465.269 300.597H462.286L448.193 311.597L461.566 327.943H465.989Z" fill="#FFF4CC"/>
</svg>
